<?xml version="1.0" standalone="no"?>
<!DOCTYPE svg PUBLIC "-//W3C//DTD SVG 20010904//EN"
 "http://www.w3.org/TR/2001/REC-SVG-20010904/DTD/svg10.dtd">
<svg version="1.0" xmlns="http://www.w3.org/2000/svg"
 width="721.000000pt" height="346.000000pt" viewBox="0 0 721.000000 346.000000"
 preserveAspectRatio="xMidYMid meet">

<g transform="translate(0.000000,346.000000) scale(0.100000,-0.100000)"
fill="#000000" stroke="none">
<path d="M1040 2540 c-145 -15 -265 -59 -395 -145 -181 -120 -313 -321 -356
-539 -18 -91 -13 -263 11 -360 11 -48 25 -95 29 -104 5 -10 23 -46 41 -82 66
-134 180 -256 317 -337 95 -57 102 -57 128 1 8 17 26 49 39 71 14 22 35 58 47
80 12 22 89 156 171 298 l149 257 -22 32 c-14 19 -24 50 -26 82 -4 49 -1 58
114 258 65 114 123 208 128 208 6 -1 17 -6 26 -13 13 -11 7 -27 -54 -132 -38
-66 -82 -145 -99 -175 -17 -30 -36 -63 -42 -73 -12 -20 7 -39 34 -34 8 1 62
84 120 185 71 124 110 182 120 180 27 -6 22 -35 -19 -102 -23 -37 -41 -68 -41
-70 0 -2 -27 -50 -60 -105 -61 -103 -71 -135 -46 -144 20 -8 42 12 69 63 43
80 168 295 178 305 6 6 15 3 26 -8 15 -15 13 -22 -36 -104 -170 -287 -180
-308 -136 -308 21 0 59 57 179 267 33 57 61 105 63 107 1 2 12 -4 23 -14 20
-18 20 -18 -12 -74 -117 -207 -185 -320 -212 -349 -31 -34 -78 -52 -133 -52
-30 0 -36 -6 -80 -82 -27 -46 -52 -90 -58 -100 -5 -9 -31 -54 -58 -100 -47
-82 -64 -111 -137 -238 -21 -36 -47 -81 -58 -100 -10 -19 -29 -51 -41 -72 -12
-20 -18 -39 -12 -42 23 -15 174 -28 256 -22 98 6 135 14 135 27 0 5 -26 53
-58 106 -32 54 -73 124 -91 157 l-34 58 34 64 c19 35 37 64 40 64 4 0 60 -92
125 -205 65 -113 121 -205 126 -205 17 0 114 54 168 93 112 82 203 189 261
307 124 250 115 553 -24 800 -70 123 -218 265 -344 329 -148 74 -316 106 -473
91z m-273 -445 c44 -77 90 -156 101 -176 11 -19 55 -96 98 -170 43 -74 89
-155 104 -182 l25 -47 -34 -65 c-19 -36 -38 -65 -43 -65 -4 0 -13 10 -19 23
-6 12 -13 23 -14 25 -2 2 -21 -8 -44 -22 -22 -14 -47 -26 -54 -26 -14 0 -105
183 -172 345 -52 124 -105 324 -105 393 0 45 23 111 43 124 17 10 23 1 114
-157z"/>
<path d="M2312 1908 l3 -603 88 -3 87 -3 0 176 0 175 144 0 143 0 118 -175
118 -175 94 0 c51 0 93 3 93 6 0 7 -191 293 -222 333 -27 35 -23 46 27 75 54
32 97 75 139 141 132 206 56 493 -158 602 -94 48 -132 53 -414 53 l-262 0 2
-602z m594 420 c144 -93 168 -330 46 -452 -67 -68 -77 -71 -279 -74 l-183 -4
0 282 0 282 188 -4 c184 -3 188 -3 228 -30z"/>
<path d="M3662 2099 c-57 -11 -140 -53 -180 -92 -45 -43 -98 -140 -111 -205
-32 -153 6 -296 105 -402 135 -145 446 -156 578 -21 l37 38 -53 51 -52 50 -35
-30 c-109 -95 -277 -89 -368 15 -28 33 -53 90 -53 125 0 9 70 12 315 12 l315
0 0 37 c0 111 -46 248 -109 324 -71 85 -239 128 -389 98z m191 -140 c52 -14
111 -75 125 -129 6 -24 9 -47 6 -52 -6 -10 -441 -11 -447 0 -12 23 17 93 54
131 22 22 44 41 47 41 4 1 30 7 57 15 50 14 85 13 158 -6z"/>
<path d="M4507 2100 c-142 -36 -218 -151 -187 -282 23 -93 99 -144 270 -183
96 -21 156 -50 163 -77 8 -30 -3 -75 -22 -91 -21 -19 -107 -47 -142 -47 -41 0
-110 27 -150 60 l-36 29 -53 -54 -52 -53 48 -36 c171 -125 412 -104 514 45 29
44 33 56 32 117 0 57 -5 77 -26 111 -45 71 -95 94 -325 152 -60 15 -95 51 -87
91 8 40 23 58 63 75 67 27 153 12 216 -38 l39 -32 51 51 51 51 -24 26 c-44 47
-137 84 -225 89 -44 3 -97 1 -118 -4z"/>
<path d="M4997 2093 c-3 -5 70 -185 162 -400 l166 -393 50 0 51 0 43 103 c44
102 167 397 242 577 21 52 39 100 39 108 0 10 -18 12 -76 10 l-75 -3 -21 -50
c-11 -27 -33 -81 -49 -120 -32 -78 -102 -256 -128 -324 -9 -24 -20 -44 -25
-45 -5 0 -54 112 -108 249 -54 138 -103 260 -108 273 -9 20 -16 22 -84 22 -41
0 -77 -3 -79 -7z"/>
<path d="M5790 2096 c0 -2 17 -46 39 -98 120 -289 145 -348 167 -396 13 -29
24 -55 24 -57 0 -3 9 -24 19 -48 54 -118 54 -108 15 -205 -76 -188 -131 -261
-198 -264 -20 -1 -42 4 -48 10 -7 7 -19 12 -28 12 -16 0 -19 -8 -46 -116 -13
-51 150 -79 230 -40 47 24 113 106 165 206 42 81 421 972 421 989 0 16 -145
14 -158 -1 -5 -7 -38 -80 -72 -163 -34 -82 -68 -163 -75 -180 -7 -16 -23 -55
-34 -85 -12 -30 -25 -62 -30 -70 -11 -16 -8 -21 -118 240 -35 85 -70 169 -78
185 -8 17 -18 43 -24 58 -10 26 -13 27 -91 27 -44 0 -80 -2 -80 -4z"/>
</g>
</svg>
